# xmcd
#
# Track frame offsets: 
#        150
#        15277
#        32375
#        45675
#        66667
#        80052
#        90147
#        104667
#        120735
#        139900
#        154500
#        165315
#
# Disc length: 2384 seconds
#
# Revision: 3
# Processed by: cddbd v1.5.2PL0 Copyright (c) Steve Scherf et al.
# Submitted via: ExactAudioCopy v0.99pb3
#
DISCID=8e094e0c
DTITLE=Sonny Landreth - Blues Attack
DYEAR=1996
DGENRE=Blues
TTITLE0=Frisco Bay
TTITLE1=The Center
TTITLE2=One Life
TTITLE3=Black, White and Blue
TTITLE4=Names
TTITLE5=Blues Attack
TTITLE6=Speak of the Devil
TTITLE7=Key To the Highway
TTITLE8=At Some Time
TTITLE9=Baby Please Don't Go
TTITLE10=Pine Grove Blues
TTITLE11=I'm Ready
EXTD=
EXTT0=
EXTT1=
EXTT2=
EXTT3=
EXTT4=
EXTT5=
EXTT6=
EXTT7=
EXTT8=
EXTT9=
EXTT10=
EXTT11=
PLAYORDER=
